<svg width="17" height="21" viewBox="0 0 17 21" fill="none" xmlns="http://www.w3.org/2000/svg">
<mask id="mask0_4001_631" style="mask-type:alpha" maskUnits="userSpaceOnUse" x="0" y="0" width="17" height="21">
<path d="M1 16.8391C1 16.2389 1.23842 15.6634 1.6628 15.239C2.08718 14.8146 2.66276 14.5762 3.26293 14.5762H15.4828" stroke="#F9FFF9" stroke-width="2" stroke-linecap="round" stroke-linejoin="round"/>
<path d="M3.26293 1H15.4828V19.1034H3.26293C2.66276 19.1034 2.08718 18.865 1.6628 18.4406C1.23842 18.0163 1 17.4407 1 16.8405V3.26293C1 2.66276 1.23842 2.08718 1.6628 1.6628C2.08718 1.23842 2.66276 1 3.26293 1Z" stroke="#F9FFF9" stroke-width="2" stroke-linecap="round" stroke-linejoin="round"/>
</mask>
<g mask="url(#mask0_4001_631)">
<rect width="21" height="21" transform="matrix(1 0 0 -1 -2.28125 20.4902)" fill="url(#paint0_linear_4001_631)"/>
<rect width="21" height="21" transform="matrix(1 0 0 -1 -2.28125 20.4902)" fill="url(#paint1_linear_4001_631)"/>
</g>
<defs>
<linearGradient id="paint0_linear_4001_631" x1="10.5" y1="0" x2="10.5" y2="21" gradientUnits="userSpaceOnUse">
<stop stop-color="white"/>
<stop offset="1" stop-color="#EBFBEA"/>
</linearGradient>
<linearGradient id="paint1_linear_4001_631" x1="0.84" y1="4.31544" x2="21.7608" y2="19.856" gradientUnits="userSpaceOnUse">
<stop offset="0.02" stop-color="#2F735E"/>
<stop offset="0.495" stop-color="#059F70"/>
<stop offset="0.855" stop-color="#5CFFAC"/>
</linearGradient>
</defs>
</svg>
