<svg width="23" height="24" viewBox="0 0 23 24" fill="none" xmlns="http://www.w3.org/2000/svg">
<path d="M11.2812 0C9.61897 0 8.02479 0.612538 6.8494 1.70286C5.674 2.79319 5.01367 4.27198 5.01367 5.81393C5.01367 7.35588 5.674 8.83468 6.8494 9.925C8.02479 11.0153 9.61897 11.6279 11.2812 11.6279C12.9435 11.6279 14.5377 11.0153 15.7131 9.925C16.8885 8.83468 17.5488 7.35588 17.5488 5.81393C17.5488 4.27198 16.8885 2.79319 15.7131 1.70286C14.5377 0.612538 12.9435 0 11.2812 0Z" fill="white"/>
<path d="M8.9474 12.9538L12.1275 12.8125C12.5738 12.8347 13.0122 12.874 13.4427 12.9303C13.6779 12.9608 13.8989 13.0526 14.08 13.1952C14.2612 13.3377 14.3949 13.525 14.4657 13.7353C14.5365 13.9456 14.5414 14.1702 14.4799 14.383C14.4184 14.5958 14.293 14.788 14.1183 14.9373C13.0866 15.8139 12.2967 16.9073 11.8147 18.1257C11.3326 19.3441 11.1726 20.652 11.348 21.9396C11.3702 22.105 11.3537 22.2729 11.2998 22.432C11.2458 22.591 12.8195 22.1965 12.6992 22.3203C12.5789 22.4442 12.6992 22.8203 12.6992 22.8203C12.1992 22.8203 10.2592 23.2486 10.0795 23.2454C7.55994 23.1989 5.20333 22.9942 3.4434 22.4942C2.56343 22.2442 1.73361 21.8931 1.10434 21.3756C0.438729 20.8291 0 20.0931 0 19.1861C0 18.271 0.448758 17.4152 1.05796 16.6989C1.6772 15.9721 2.53335 15.3035 3.53741 14.7338C5.01129 13.9013 6.87432 13.2447 8.9474 12.9538Z" fill="white"/>
<path d="M8.94727 12.9541C9.70047 12.8484 10.4814 12.791 11.2815 12.791C11.5665 12.7916 11.8485 12.7989 12.1274 12.8128L8.94727 12.9541Z" fill="white"/>
<path d="M21.752 16.8047L22.5098 18.081C22.3367 17.6249 22.0693 17.1954 21.752 16.8047Z" fill="white"/>
<path d="M8.64163 13.1954C8.82275 13.0529 9.0438 12.961 9.27902 12.9305C9.97848 12.8391 10.6988 12.7926 11.4401 12.791C14.4422 12.791 17.1749 13.5992 19.1843 14.734C20.1883 15.3038 21.0445 15.9724 21.6637 16.6991C21.6935 16.7342 21.7229 16.7695 21.7519 16.8052L22.5097 18.0815C22.6441 18.4357 22.7217 18.8059 22.7217 19.1863C22.7217 20.0933 22.283 20.8294 21.6173 21.3759C20.9881 21.8933 20.1582 22.2445 19.2783 22.4945C17.5183 22.9945 15.1617 23.1991 12.6422 23.2456C7.11508 23.3477 9.36413 22.8871 9.19922 22.8208C9.03431 22.7545 8.81953 21.9446 8.69922 21.8208C8.57891 21.697 8.75318 20.4798 8.69922 20.3208C8.64525 20.1618 9.17708 20.4862 9.19922 20.3208C9.37464 19.0332 11.389 19.3444 10.907 18.126C10.425 16.9076 9.63503 15.8142 8.60337 14.9375C8.42866 14.7883 8.30325 14.5961 8.24174 14.3833C8.18024 14.1705 8.18517 13.9458 8.25596 13.7355C8.32676 13.5252 8.46051 13.3379 8.64163 13.1954Z" fill="white"/>
</svg>
